<svg xmlns="http://www.w3.org/2000/svg" viewBox="0 0 64 64"><path fill="#ECEFF0" d="M12.934 3.263c-.047 3.93-.144 12.527-.144 16.228 0 5.128.887 8.2.924 8.33l.126.43.298.337c4.636 5.213 5.494 12.673 5.57 13.446v18.29c-1.465.214-4.257.417-8.125.417s-6.66-.204-8.125-.42V42.03c.08-.787.94-8.238 5.57-13.447l.297-.334.126-.43c.04-.13.93-3.208.93-8.33 0-3.7-.096-12.296-.144-16.226h2.702m2.024-2H8.21s.168 13.333.168 18.228c0 4.895-.844 7.764-.844 7.764C2.134 33.33 1.46 41.94 1.46 41.94v19.914c1.01.59 5.567.885 10.123.885s9.112-.3 10.126-.89V41.94s-.68-8.608-6.08-14.684c0 0-.844-2.87-.844-7.763s.167-18.223.167-18.223z"/><path fill="#ECEFF0" d="M1.875 42.1h19.368v2H1.875zm0 12.028h19.368v2H1.875zM8.267 5.106h6.243v2H8.267zm52.25 23.656c-.413 6.202-5.59 11.122-11.896 11.122s-11.48-4.92-11.89-11.122h23.79m1.964-2h-27.72a13.6 13.6 0 0 0-.06 1.202c0 7.688 6.23 13.92 13.92 13.92s13.92-6.23 13.92-13.92c0-.406-.025-.806-.06-1.202z"/><path fill="#ECEFF0" d="M47.62 41.223h2v19.594h-2z"/><path fill="#ECEFF0" d="M43.293 59.816H53.95v2H43.293zM34.7 38.33c-8.228 0-14.92-6.693-14.92-14.92 0-.435.027-.86.062-1.285l.076-.918h29.558l.08.912c.04.42.065.85.065 1.29 0 1.6-.25 3.173-.75 4.69l-1.9-.628a12.954 12.954 0 0 0 .65-4.268H21.78v.203c0 7.124 5.795 12.92 12.92 12.92 1.293 0 2.568-.19 3.792-.565l.586 1.912a14.966 14.966 0 0 1-4.378.652z"/><path fill="#ECEFF0" d="M33.7 36.67h2v19.59h-2z"/><path fill="#ECEFF0" d="M29.373 55.262h10.654v2H29.373z"/></svg>