<svg xmlns="http://www.w3.org/2000/svg" viewBox="0 0 111 125"><title>monitor_screen_tablet_phone</title><path d="M94 99.485H74.086s-4.68 0-4.68-4.68V52.68c0-4.68 4.68-4.68 4.68-4.68h29.253s4.68 0 4.68 4.68V68h-2.576V52.92c0-2.346-2.48-2.346-2.48-2.346H74.46s-2.48 0-2.48 2.346v37.527c0 2.345 2.48 2.345 2.48 2.345H94v6.693zM67 77H9.048S0 77 0 67.94V9.06C0 0 9.048 0 9.048 0h76.904S95 0 95 9.06V46h-5V9.56C90 5 85.526 5 85.526 5H9.474S5 5 5 9.56v47.88C5 62 9.474 62 9.474 62H67v15zm0 23H27l9-9v-9h4.963v9l-2.997 4h22.167L56 91v-9h5v9l6 4.91V100zm21.76-2.2c.973 0 1.76-.786 1.76-1.755 0-.97-.787-1.755-1.76-1.755-.97 0-1.758.786-1.758 1.755 0 .97.787 1.755 1.76 1.755zm10.58-27.66s-2.647 0-2.647 2.666v24.01c0 2.67 2.648 2.67 2.648 2.67h8.608s2.648 0 2.648-2.67v-24.01c0-2.667-2.648-2.667-2.648-2.667H99.34zm-1.102 3.088v21.11h10.812v-21.11H98.238zm5.663 25.227a1.03 1.03 0 1 0 0-2.06 1.03 1.03 0 0 0 0 2.06zm-2.563-27.287c-.29 0-.523.24-.523.515 0 .285.23.515.523.515h4.618c.288 0 .522-.24.522-.515a.516.516 0 0 0-.522-.515h-4.618z" fill="#6F6070" fill-rule="evenodd"/></svg>